<svg width="21" height="22" viewBox="0 0 21 22" fill="none" xmlns="http://www.w3.org/2000/svg">
    <path
        d="M7.07985 7.69035C7.07985 7.88926 7.00084 8.08003 6.86018 8.22068C6.71953 8.36133 6.52877 8.44035 6.32985 8.44035H4.09985C3.90094 8.44035 3.71018 8.36133 3.56952 8.22068C3.42887 8.08003 3.34985 7.88926 3.34985 7.69035C3.34985 7.49144 3.42887 7.30067 3.56952 7.16002C3.71018 7.01937 3.90094 6.94035 4.09985 6.94035H6.32985C6.52796 6.94294 6.71723 7.02279 6.85732 7.16288C6.99742 7.30298 7.07726 7.49224 7.07985 7.69035ZM10.4299 13.5003H8.19985C8.00094 13.5003 7.81018 13.5794 7.66952 13.72C7.52887 13.8607 7.44985 14.0514 7.44985 14.2503C7.44985 14.4493 7.52887 14.64 7.66952 14.7807C7.81018 14.9213 8.00094 15.0003 8.19985 15.0003H10.4299C10.6288 15.0003 10.8195 14.9213 10.9602 14.7807C11.1008 14.64 11.1799 14.4493 11.1799 14.2503C11.1799 14.0514 11.1008 13.8607 10.9602 13.72C10.8195 13.5794 10.6288 13.5003 10.4299 13.5003ZM6.32985 10.2203H4.09985C3.90094 10.2203 3.71018 10.2994 3.56952 10.44C3.42887 10.5807 3.34985 10.7714 3.34985 10.9703C3.34985 11.1693 3.42887 11.36 3.56952 11.5007C3.71018 11.6413 3.90094 11.7203 4.09985 11.7203H6.32985C6.52877 11.7203 6.71953 11.6413 6.86018 11.5007C7.00084 11.36 7.07985 11.1693 7.07985 10.9703C7.07985 10.7714 7.00084 10.5807 6.86018 10.44C6.71953 10.2994 6.52877 10.2203 6.32985 10.2203ZM10.4299 6.94035H9.06985C8.87094 6.94035 8.68018 7.01937 8.53952 7.16002C8.39887 7.30067 8.31985 7.49144 8.31985 7.69035C8.31985 7.88926 8.39887 8.08003 8.53952 8.22068C8.68018 8.36133 8.87094 8.44035 9.06985 8.44035H10.4299C10.6288 8.44035 10.8195 8.36133 10.9602 8.22068C11.1008 8.08003 11.1799 7.88926 11.1799 7.69035C11.1799 7.49144 11.1008 7.30067 10.9602 7.16002C10.8195 7.01937 10.6288 6.94035 10.4299 6.94035ZM20.4299 15.6403V17.9403C20.4312 18.4402 20.3339 18.9354 20.1435 19.3976C19.9531 19.8598 19.6734 20.2799 19.3204 20.6338C18.9674 20.9877 18.5481 21.2685 18.0864 21.4601C17.6247 21.6517 17.1297 21.7503 16.6299 21.7503H4.35985C3.34846 21.7477 2.3794 21.3441 1.66517 20.628C0.950941 19.9119 0.549851 18.9417 0.549855 17.9303V2.46035C0.547498 2.15948 0.628462 1.86383 0.783781 1.60614C0.939101 1.34845 1.16271 1.13878 1.42985 1.00035C1.69642 0.862307 1.99559 0.799602 2.29515 0.818986C2.59471 0.838369 2.8833 0.939106 3.12985 1.11035L4.37985 2.00035C4.3981 2.01088 4.41879 2.01642 4.43985 2.01642C4.46092 2.01642 4.48161 2.01088 4.49985 2.00035L6.49985 0.530348C6.76911 0.324977 7.09534 0.207994 7.43375 0.19546C7.77215 0.182926 8.10614 0.275458 8.38985 0.460348L10.3899 1.80035C10.4138 1.81545 10.4415 1.82346 10.4699 1.82346C10.4982 1.82346 10.5259 1.81545 10.5499 1.80035L11.7699 1.00035C12.0185 0.841062 12.3054 0.751425 12.6005 0.740789C12.8956 0.730154 13.1881 0.798911 13.4476 0.939884C13.7071 1.08086 13.9239 1.28888 14.0756 1.54225C14.2273 1.79562 14.3082 2.08506 14.3099 2.38035V12.1603H17.6399C18.016 12.1522 18.3899 12.22 18.7392 12.3596C19.0885 12.4992 19.4061 12.7078 19.6731 12.9729C19.94 13.2379 20.1508 13.5541 20.2929 13.9024C20.4349 14.2508 20.5053 14.6242 20.4999 15.0003L20.4299 15.6403ZM13.5999 20.2603C13.0931 19.5931 12.8191 18.7782 12.8199 17.9403V12.9403V2.39035C12.8215 2.36431 12.8158 2.33834 12.8034 2.31537C12.791 2.2924 12.7725 2.27334 12.7499 2.26035C12.7268 2.24809 12.701 2.24168 12.6749 2.24168C12.6487 2.24168 12.623 2.24809 12.5999 2.26035L11.3999 3.05035C11.1312 3.22226 10.8188 3.31361 10.4999 3.31361C10.1809 3.31361 9.86856 3.22226 9.59986 3.05035L7.59985 1.70035C7.57401 1.68543 7.5447 1.67757 7.51485 1.67757C7.48501 1.67757 7.4557 1.68543 7.42985 1.70035L5.49985 3.19035C5.21648 3.41524 4.86669 3.54012 4.50496 3.54555C4.14323 3.55098 3.78985 3.43664 3.49985 3.22035L2.26985 2.34035C2.24385 2.33194 2.21586 2.33194 2.18985 2.34035H2.11985C2.09723 2.35334 2.07869 2.3724 2.06632 2.39537C2.05396 2.41834 2.04825 2.44431 2.04985 2.47035V17.9403C2.04985 18.5539 2.2929 19.1425 2.72583 19.5773C3.15875 20.0121 3.74629 20.2577 4.35985 20.2603H13.5999ZM18.9499 15.0003C18.9499 14.6546 18.8132 14.3229 18.5697 14.0776C18.3262 13.8322 17.9956 13.693 17.6499 13.6903H14.3199V17.8503C14.3183 18.2593 14.4179 18.6624 14.6098 19.0235C14.8018 19.3847 15.08 19.6928 15.4199 19.9203L15.5899 20.0203L15.7499 20.1003C15.9237 20.168 16.105 20.215 16.2899 20.2403C16.6106 20.2931 16.939 20.2767 17.2529 20.1922C17.5668 20.1077 17.859 19.957 18.1099 19.7503C18.3731 19.5323 18.5849 19.2588 18.7301 18.9493C18.8753 18.6399 18.9504 18.3022 18.9499 17.9603V15.0003ZM10.4299 10.2403H9.06985C8.87094 10.2403 8.68018 10.3194 8.53952 10.46C8.39887 10.6007 8.31985 10.7914 8.31985 10.9903C8.31985 11.1893 8.39887 11.38 8.53952 11.5207C8.68018 11.6613 8.87094 11.7403 9.06985 11.7403H10.4299C10.6288 11.7403 10.8195 11.6613 10.9602 11.5207C11.1008 11.38 11.1799 11.1893 11.1799 10.9903C11.1799 10.7914 11.1008 10.6007 10.9602 10.46C10.8195 10.3194 10.6288 10.2403 10.4299 10.2403Z"
        fill="white" />
</svg>