<svg width="24" height="22" viewBox="0 0 24 22" fill="none" xmlns="http://www.w3.org/2000/svg">
    <path
        d="M23.1898 9.00027C23.2327 6.735 22.3758 4.54511 20.8068 2.91057C19.2379 1.27602 17.0849 0.330157 14.8198 0.280273C13.3579 0.291789 11.9249 0.687813 10.6645 1.42856C9.40422 2.16931 8.36103 3.22869 7.63978 4.50027C6.02268 4.85197 4.5406 5.6607 3.36978 6.83027C1.73207 8.46799 0.812012 10.6892 0.812012 13.0053C0.812012 15.3213 1.73207 17.5426 3.36978 19.1803C5.00749 20.818 7.22871 21.738 9.54478 21.738C11.8609 21.738 14.0821 20.818 15.7198 19.1803C16.2669 18.6362 16.7378 18.0206 17.1198 17.3503C18.8921 16.7916 20.4383 15.6788 21.531 14.1757C22.6237 12.6726 23.2051 10.8585 23.1898 9.00027ZM14.8198 16.2103C12.9516 16.1657 11.1775 15.3812 9.88746 14.0293C8.59738 12.6773 7.89684 10.8685 7.93978 9.00027C7.93978 8.86027 7.93978 8.73027 7.93978 8.60027C7.94503 8.50178 7.93084 8.40322 7.898 8.31022C7.86516 8.21721 7.81432 8.13159 7.74839 8.05823C7.68247 7.98487 7.60273 7.92522 7.51375 7.88267C7.42476 7.84013 7.32827 7.81553 7.22978 7.81027C7.13129 7.80502 7.03273 7.81922 6.93972 7.85206C6.84672 7.88489 6.76109 7.93573 6.68773 8.00166C6.61438 8.06759 6.55472 8.14732 6.51218 8.23631C6.46963 8.32529 6.44503 8.42178 6.43978 8.52027C6.43978 8.68027 6.43978 8.84027 6.43978 9.00027C6.39959 11.2655 7.25907 13.4543 8.82987 15.087C10.4007 16.7196 12.5547 17.663 14.8198 17.7103H14.9998C14.8814 17.8639 14.7546 18.0108 14.6198 18.1503C13.429 19.3216 11.8693 20.0444 10.2059 20.196C8.54246 20.3476 6.87786 19.9186 5.49495 18.9818C4.11204 18.045 3.09614 16.6583 2.61989 15.0573C2.14364 13.4563 2.23642 11.7398 2.88247 10.1995C3.52851 8.65914 4.68795 7.39001 6.16378 6.60775C7.63961 5.82549 9.34076 5.57836 10.9782 5.90836C12.6156 6.23836 14.0882 7.12512 15.1458 8.41795C16.2034 9.71079 16.7808 11.3299 16.7798 13.0003C16.7798 13.1992 16.8588 13.39 16.9995 13.5306C17.1401 13.6713 17.3309 13.7503 17.5298 13.7503C17.7287 13.7503 17.9195 13.6713 18.0601 13.5306C18.2008 13.39 18.2798 13.1992 18.2798 13.0003C18.2798 10.6962 17.368 8.4858 15.7435 6.85191C14.1189 5.21803 11.9138 4.29348 9.60978 4.28027C10.2389 3.50233 11.0322 2.87303 11.9328 2.43739C12.8335 2.00175 13.8193 1.77053 14.8198 1.76027C16.6907 1.81002 18.4652 2.60057 19.7535 3.95818C21.0417 5.31579 21.7382 7.12936 21.6898 9.00027C21.7274 10.8634 21.0258 12.6656 19.7385 14.0129C18.4511 15.3602 16.6827 16.1431 14.8198 16.1903V16.2103Z"
        fill="white" />
</svg>