<svg width="32" height="32" viewBox="0 0 32 32" fill="none" xmlns="http://www.w3.org/2000/svg">
<rect width="32" height="32" rx="16" fill="black" fill-opacity="0.04"/>
<rect x="0.5" y="0.5" width="31" height="31" rx="15.5" stroke="url(#paint0_linear_401_1236)" stroke-opacity="0.12"/>
<path opacity="0.963" fill-rule="evenodd" clip-rule="evenodd" d="M24 10.0484C24 10.2672 24 10.4859 24 10.7047C23.2396 14.3973 22.4844 18.0952 21.7344 21.7984C21.3768 22.7609 20.7362 23.0162 19.8125 22.564C18.9122 21.8564 18.0163 21.1429 17.125 20.4234C16.537 20.9541 15.9537 21.4906 15.375 22.0328C14.7089 22.5756 14.0683 22.5495 13.4531 21.9547C13.3678 21.8377 13.2948 21.7127 13.2344 21.5797C12.7113 20.0886 12.1853 18.599 11.6562 17.1109C10.6429 16.8235 9.63247 16.5266 8.625 16.2203C8.33713 16.0938 8.1288 15.8907 8 15.6109C8 15.4755 8 15.3401 8 15.2047C8.14083 14.8827 8.38041 14.6587 8.71875 14.5328C13.3101 12.7767 17.9038 11.0266 22.5 9.28278C23.2429 9.08644 23.7429 9.34165 24 10.0484ZM22.9062 10.1734C22.9444 10.1899 22.9808 10.2107 23.0156 10.2359C23.0365 10.3505 23.0365 10.4651 23.0156 10.5797C22.2865 14.1838 21.5573 17.788 20.8281 21.3922C20.7708 21.8404 20.5676 21.9289 20.2188 21.6578C18.7188 20.4494 17.2188 19.2411 15.7188 18.0328C17.3167 16.3202 18.9261 14.6171 20.5469 12.9234C20.7794 12.6521 20.7742 12.3865 20.5312 12.1265C20.3588 12.0379 20.1817 12.0275 20 12.0953C17.3542 13.4494 14.7083 14.8036 12.0625 16.1578C12 16.1786 11.9375 16.1786 11.875 16.1578C10.9969 15.9119 10.1219 15.6567 9.25 15.3922C13.7984 13.6331 18.3505 11.8935 22.9062 10.1734ZM17.875 14.2984C16.7814 15.4597 15.6929 16.6264 14.6094 17.7984C14.3552 18.7004 14.1157 19.6067 13.8906 20.5172C13.473 19.3372 13.0615 18.1549 12.6562 16.9703C14.3869 16.0633 16.1264 15.1727 17.875 14.2984ZM15.2812 18.9547C15.653 19.2116 16.0072 19.4928 16.3438 19.7984C15.812 20.3042 15.2755 20.8042 14.7344 21.2984C14.9111 20.5184 15.0934 19.7372 15.2812 18.9547Z" fill="black"/>
<defs>
<linearGradient id="paint0_linear_401_1236" x1="16" y1="0" x2="16" y2="32" gradientUnits="userSpaceOnUse">
<stop/>
<stop offset="1" stop-opacity="0.12"/>
</linearGradient>
</defs>
</svg>
