<svg width="32" height="32" viewBox="0 0 32 32" fill="none" xmlns="http://www.w3.org/2000/svg">
<rect width="32" height="32" rx="16" fill="white" fill-opacity="0.04"/>
<rect x="0.5" y="0.5" width="31" height="31" rx="15.5" stroke="url(#paint0_linear_533_1052)" stroke-opacity="0.12"/>
<path opacity="0.963" fill-rule="evenodd" clip-rule="evenodd" d="M24 10.0486C24 10.2674 24 10.4861 24 10.7049C23.2396 14.3975 22.4844 18.0955 21.7344 21.7986C21.3768 22.7612 20.7362 23.0164 19.8125 22.5643C18.9122 21.8567 18.0163 21.1431 17.125 20.4236C16.537 20.9544 15.9537 21.4908 15.375 22.033C14.7089 22.5758 14.0683 22.5498 13.4531 21.9549C13.3678 21.838 13.2948 21.713 13.2344 21.5799C12.7113 20.0888 12.1853 18.5992 11.6562 17.1111C10.6429 16.8237 9.63247 16.5268 8.625 16.2205C8.33713 16.094 8.1288 15.8909 8 15.6111C8 15.4757 8 15.3403 8 15.2049C8.14083 14.883 8.38041 14.659 8.71875 14.533C13.3101 12.7769 17.9038 11.0269 22.5 9.28302C23.2429 9.08667 23.7429 9.34188 24 10.0486ZM22.9062 10.1736C22.9444 10.1902 22.9808 10.211 23.0156 10.2361C23.0365 10.3507 23.0365 10.4653 23.0156 10.5799C22.2865 14.184 21.5573 17.7882 20.8281 21.3924C20.7708 21.8406 20.5676 21.9291 20.2188 21.658C18.7188 20.4497 17.2188 19.2414 15.7188 18.033C17.3167 16.3205 18.9261 14.6173 20.5469 12.9236C20.7794 12.6524 20.7742 12.3867 20.5312 12.1268C20.3588 12.0382 20.1817 12.0277 20 12.0955C17.3542 13.4497 14.7083 14.8039 12.0625 16.158C12 16.1789 11.9375 16.1789 11.875 16.158C10.9969 15.9122 10.1219 15.657 9.25 15.3924C13.7984 13.6334 18.3505 11.8938 22.9062 10.1736ZM17.875 14.2986C16.7814 15.46 15.6929 16.6266 14.6094 17.7986C14.3552 18.7006 14.1157 19.6069 13.8906 20.5174C13.473 19.3375 13.0615 18.1551 12.6562 16.9705C14.3869 16.0635 16.1264 15.1729 17.875 14.2986ZM15.2812 18.9549C15.653 19.2118 16.0072 19.4931 16.3438 19.7986C15.812 20.3044 15.2755 20.8044 14.7344 21.2986C14.9111 20.5186 15.0934 19.7374 15.2812 18.9549Z" fill="white"/>
<defs>
<linearGradient id="paint0_linear_533_1052" x1="16" y1="0" x2="16" y2="32" gradientUnits="userSpaceOnUse">
<stop stop-color="white"/>
<stop offset="1" stop-color="#999999" stop-opacity="0.12"/>
</linearGradient>
</defs>
</svg>
