<svg width="32" height="32" viewBox="0 0 32 32" fill="none" xmlns="http://www.w3.org/2000/svg">
<rect width="32" height="32" rx="16" fill="white" fill-opacity="0.04"/>
<rect x="0.5" y="0.5" width="31" height="31" rx="15.5" stroke="url(#paint0_linear_533_1055)" stroke-opacity="0.12"/>
<path opacity="0.966" fill-rule="evenodd" clip-rule="evenodd" d="M8.15625 8C9.72917 8 11.3021 8 12.875 8C14.1978 9.95788 15.5363 11.9058 16.8906 13.8438C18.5691 11.8998 20.2409 9.95191 21.9062 8C22.3854 8 22.8646 8 23.3438 8C21.407 10.2598 19.4695 12.5202 17.5312 14.7812C19.6362 17.8547 21.7404 20.9277 23.8438 24C22.2708 24 20.6979 24 19.125 24C17.7204 21.9338 16.309 19.8713 14.8906 17.8125C13.1184 19.871 11.3528 21.9335 9.59375 24C9.11458 24 8.63542 24 8.15625 24C10.1814 21.6259 12.2126 19.2561 14.25 16.8906C12.2225 13.924 10.1912 10.9605 8.15625 8ZM10.0938 9.09375C10.7866 9.05223 11.4845 9.05223 12.1875 9.09375C15.4155 13.7322 18.6551 18.3624 21.9062 22.9844C21.2081 23.0104 20.5102 23.0052 19.8125 22.9688C16.5722 18.3417 13.3326 13.7167 10.0938 9.09375Z" fill="white"/>
<defs>
<linearGradient id="paint0_linear_533_1055" x1="16" y1="0" x2="16" y2="32" gradientUnits="userSpaceOnUse">
<stop stop-color="white"/>
<stop offset="1" stop-color="#999999" stop-opacity="0.12"/>
</linearGradient>
</defs>
</svg>
