<svg width="32" height="32" viewBox="0 0 32 32" fill="none" xmlns="http://www.w3.org/2000/svg">
<rect width="32" height="32" rx="16" fill="black" fill-opacity="0.04"/>
<rect x="0.5" y="0.5" width="31" height="31" rx="15.5" stroke="url(#paint0_linear_401_1242)" stroke-opacity="0.12"/>
<path opacity="0.967" fill-rule="evenodd" clip-rule="evenodd" d="M24 14.188C24 15.4067 24 16.6255 24 17.8442C23.9653 18.3186 23.9289 18.7978 23.8906 19.2817C23.8132 19.9206 23.5944 20.504 23.2344 21.0317C22.7554 21.5632 22.1564 21.8497 21.4375 21.8911C18.0111 22.1085 14.584 22.1189 11.1562 21.9224C10.571 21.9144 10.0085 21.7998 9.46875 21.5786C8.93259 21.3029 8.5628 20.881 8.35938 20.313C8.26695 20.0475 8.19403 19.7766 8.14062 19.5005C8.08307 18.9445 8.0362 18.3925 8 17.8442C8 16.6255 8 15.4067 8 14.188C8.03477 13.6397 8.08164 13.0876 8.14062 12.5317C8.2424 11.6658 8.64344 10.9835 9.34375 10.4849C9.71176 10.2719 10.1076 10.1469 10.5312 10.1099C14.1771 9.8807 17.8229 9.8807 21.4688 10.1099C22.8809 10.3033 23.6778 11.1106 23.8594 12.5317C23.9184 13.0876 23.9653 13.6397 24 14.188ZM14.0625 10.9067C16.5024 10.8679 18.9399 10.9252 21.375 11.0786C21.9913 11.1233 22.434 11.4201 22.7031 11.9692C22.8005 12.2442 22.8734 12.5254 22.9219 12.813C23.1088 14.938 23.1088 17.063 22.9219 19.188C22.8621 19.5208 22.7683 19.8437 22.6406 20.1567C22.3527 20.6473 21.9205 20.9025 21.3438 20.9224C17.8437 21.1501 14.3437 21.1501 10.8438 20.9224C10.3283 20.9273 9.88559 20.7554 9.51562 20.4067C9.27731 20.0357 9.13147 19.6294 9.07812 19.188C8.88346 17.0096 8.89387 14.8325 9.10938 12.6567C9.17437 12.3159 9.28895 11.993 9.45312 11.688C9.70123 11.3791 10.0189 11.1864 10.4062 11.1099C11.6278 11.0086 12.8466 10.9409 14.0625 10.9067Z" fill="black"/>
<path opacity="0.963" fill-rule="evenodd" clip-rule="evenodd" d="M14.5 13.2508C14.7008 13.2431 14.8883 13.2899 15.0625 13.3914C16.2138 14.0348 17.37 14.6702 18.5313 15.2977C18.8329 15.5588 18.8902 15.8661 18.7031 16.2196C18.6563 16.3081 18.5885 16.3758 18.5 16.4227C17.3179 17.0502 16.1409 17.6856 14.9688 18.3289C14.5264 18.5114 14.1983 18.3916 13.9844 17.9696C13.974 17.9071 13.9635 17.8446 13.9531 17.7821C13.9323 16.4904 13.9323 15.1987 13.9531 13.9071C13.9897 13.5612 14.172 13.3424 14.5 13.2508ZM14.9063 14.4383C14.901 15.3759 14.9063 16.3134 14.9219 17.2508C15.7788 16.7833 16.6381 16.3198 17.5 15.8602C16.6438 15.3696 15.7792 14.8956 14.9063 14.4383Z" fill="black"/>
<defs>
<linearGradient id="paint0_linear_401_1242" x1="16" y1="0" x2="16" y2="32" gradientUnits="userSpaceOnUse">
<stop/>
<stop offset="1" stop-opacity="0.12"/>
</linearGradient>
</defs>
</svg>
