<svg width="32" height="32" viewBox="0 0 32 32" fill="none" xmlns="http://www.w3.org/2000/svg">
<rect width="32" height="32" rx="16" fill="white" fill-opacity="0.04"/>
<rect x="0.5" y="0.5" width="31" height="31" rx="15.5" stroke="url(#paint0_linear_533_1058)" stroke-opacity="0.12"/>
<path opacity="0.967" fill-rule="evenodd" clip-rule="evenodd" d="M24 14.1878C24 15.4066 24 16.6253 24 17.8441C23.9653 18.3185 23.9289 18.7976 23.8906 19.2816C23.8132 19.9205 23.5944 20.5038 23.2344 21.0316C22.7554 21.5631 22.1564 21.8496 21.4375 21.891C18.0111 22.1083 14.584 22.1187 11.1562 21.9222C10.571 21.9142 10.0085 21.7996 9.46875 21.5785C8.93259 21.3027 8.5628 20.8808 8.35938 20.3128C8.26695 20.0473 8.19403 19.7765 8.14062 19.5003C8.08307 18.9444 8.0362 18.3923 8 17.8441C8 16.6253 8 15.4066 8 14.1878C8.03477 13.6395 8.08164 13.0874 8.14062 12.5316C8.2424 11.6656 8.64344 10.9834 9.34375 10.4847C9.71176 10.2718 10.1076 10.1468 10.5312 10.1097C14.1771 9.88054 17.8229 9.88054 21.4688 10.1097C22.8809 10.3031 23.6778 11.1104 23.8594 12.5316C23.9184 13.0874 23.9653 13.6395 24 14.1878ZM14.0625 10.9066C16.5024 10.8678 18.9399 10.9251 21.375 11.0785C21.9913 11.1231 22.434 11.42 22.7031 11.9691C22.8005 12.244 22.8734 12.5253 22.9219 12.8128C23.1088 14.9379 23.1088 17.0629 22.9219 19.1878C22.8621 19.5207 22.7683 19.8436 22.6406 20.1566C22.3527 20.6472 21.9205 20.9024 21.3438 20.9222C17.8437 21.15 14.3437 21.15 10.8438 20.9222C10.3283 20.9271 9.88559 20.7553 9.51562 20.4066C9.27731 20.0355 9.13147 19.6293 9.07812 19.1878C8.88346 17.0094 8.89387 14.8323 9.10938 12.6566C9.17437 12.3158 9.28895 11.9928 9.45312 11.6878C9.70123 11.379 10.0189 11.1862 10.4062 11.1097C11.6278 11.0084 12.8466 10.9407 14.0625 10.9066Z" fill="white"/>
<path opacity="0.963" fill-rule="evenodd" clip-rule="evenodd" d="M14.5 13.2505C14.7008 13.2428 14.8883 13.2896 15.0625 13.3911C16.2138 14.0345 17.37 14.6699 18.5313 15.2974C18.8329 15.5585 18.8902 15.8658 18.7031 16.2193C18.6563 16.3078 18.5885 16.3755 18.5 16.4224C17.3179 17.0499 16.1409 17.6853 14.9688 18.3286C14.5264 18.5111 14.1983 18.3913 13.9844 17.9693C13.974 17.9068 13.9635 17.8443 13.9531 17.7818C13.9323 16.4901 13.9323 15.1984 13.9531 13.9068C13.9897 13.5609 14.172 13.3421 14.5 13.2505ZM14.9063 14.438C14.901 15.3756 14.9063 16.3131 14.9219 17.2505C15.7788 16.783 16.6381 16.3194 17.5 15.8599C16.6438 15.3693 15.7792 14.8953 14.9063 14.438Z" fill="white"/>
<defs>
<linearGradient id="paint0_linear_533_1058" x1="16" y1="0" x2="16" y2="32" gradientUnits="userSpaceOnUse">
<stop stop-color="white"/>
<stop offset="1" stop-color="#999999" stop-opacity="0.12"/>
</linearGradient>
</defs>
</svg>
