<svg width="12" height="19" viewBox="0 0 12 19" fill="none" xmlns="http://www.w3.org/2000/svg">
    <path
        d="M1.78692 18.8334C1.96333 18.8327 2.13784 18.7969 2.30034 18.7283C2.46284 18.6596 2.61011 18.5594 2.73359 18.4334L10.6269 10.5001C10.8753 10.2503 11.0146 9.91233 11.0146 9.56008C11.0146 9.20783 10.8753 8.86989 10.6269 8.62008L2.73359 0.713411C2.48252 0.46234 2.14199 0.321289 1.78692 0.321289C1.43186 0.321289 1.09133 0.46234 0.840258 0.713411C0.589187 0.964483 0.448135 1.30501 0.448135 1.66008C0.448135 2.01515 0.589187 2.35567 0.840258 2.60674L7.80026 9.50008L0.840258 16.4601C0.615227 16.6383 0.453704 16.8843 0.379701 17.1616C0.305697 17.439 0.323167 17.7328 0.42951 17.9994C0.535854 18.266 0.725394 18.4912 0.969954 18.6414C1.21451 18.7917 1.50104 18.859 1.78692 18.8334Z"
        fill="black" />
</svg>